<svg style="position: absolute; width: 0; height: 0; overflow: hidden;" aria-hidden="true" version="1.1" xmlns="http://www.w3.org/2000/svg" xmlns:xlink="http://www.w3.org/1999/xlink">
    <style>
        .default-palette, .palette0 {color: currentColor;
            --color0: #f4f4fd;
        }
    </style>
    <defs>
        <symbol id="check-mark" viewBox="0 0 10 8" fill="none">
            <path fill="var(--color0, #f4f4fd)" d="M8.4456 0.2551C8.6184 0.0897 8.8483-18e-4 9.0869 0 9.3255 18e-4 9.5541 0.0968 9.7244 0.2648c0.1703 0.168 0.269 0.396 0.2753 0.6357 63e-4 0.2398-0.0803 0.4727-0.2415 0.6495L4.8636 7.7044c-0.0842 0.0911-0.1858 0.1642-0.2987 0.215S4.33 7.9975 4.2064 7.9998c-0.1237 23e-4-0.2466-0.0205-0.3613-0.067C3.7304 7.8863 3.6262 7.817 3.5387 7.729L0.2928 4.4656C0.2024 4.381 0.1299 4.2788 0.0796 4.1654 0.0294 4.0519 23e-4 3.9294 1e-4 3.8052S0.0207 3.5577 0.067 3.4425c0.0462-0.1152 0.1151-0.2198 0.2025-0.3077 0.0873-0.0878 0.1914-0.1571 0.306-0.2036s0.2372-0.0693 0.3608-0.0671 0.2453 0.0293 0.3582 0.0799c0.1128 0.0505 0.2144 0.1234 0.2987 0.2143l2.5687 2.5814 4.2604-5.4575c76e-4-95e-4 0.0158-0.0186 0.0245-0.0271z" />
        </symbol>
    </defs>
</svg>